<svg width="12" height="11" viewBox="0 0 12 11" fill="none" xmlns="http://www.w3.org/2000/svg">
<path d="M0 0V8.57955H2.30769V11L5.23918 8.57955H12V0H0ZM0.923077 0.953284H11.0769V7.62627H4.91466L3.23077 9.0171V7.62627H0.923077V0.953284ZM3.23077 3.33649C2.72055 3.33649 2.30769 3.76286 2.30769 4.28978C2.30769 4.81669 2.72055 5.24306 3.23077 5.24306C3.74099 5.24306 4.15385 4.81669 4.15385 4.28978C4.15385 3.76286 3.74099 3.33649 3.23077 3.33649ZM6 3.33649C5.48978 3.33649 5.07692 3.76286 5.07692 4.28978C5.07692 4.81669 5.48978 5.24306 6 5.24306C6.51022 5.24306 6.92308 4.81669 6.92308 4.28978C6.92308 3.76286 6.51022 3.33649 6 3.33649ZM8.76923 3.33649C8.25901 3.33649 7.84615 3.76286 7.84615 4.28978C7.84615 4.81669 8.25901 5.24306 8.76923 5.24306C9.27945 5.24306 9.69231 4.81669 9.69231 4.28978C9.69231 3.76286 9.27945 3.33649 8.76923 3.33649Z" fill="black"/>
</svg>
