<svg width="20" height="5" viewBox="0 0 20 5" fill="none" xmlns="http://www.w3.org/2000/svg">
<path d="M4.5 2.5C4.5 3.60457 3.60457 4.5 2.5 4.5C1.39543 4.5 0.5 3.60457 0.5 2.5C0.5 1.39543 1.39543 0.500001 2.5 0.500001C3.60457 0.500001 4.5 1.39543 4.5 2.5ZM12 2.5C12 3.60457 11.1046 4.5 10 4.5C8.89543 4.5 8 3.60457 8 2.5C8 1.39543 8.89543 0.500001 10 0.500001C11.1046 0.5 12 1.39543 12 2.5ZM19.5 2.5C19.5 3.60457 18.6046 4.5 17.5 4.5C16.3954 4.5 15.5 3.60457 15.5 2.5C15.5 1.39543 16.3954 0.5 17.5 0.5C18.6046 0.5 19.5 1.39543 19.5 2.5Z" stroke="black"/>
</svg>
