<svg width="22" height="22" viewBox="0 0 22 22" fill="none" xmlns="http://www.w3.org/2000/svg">
<path d="M11 21C13.4799 21 15.7308 20.1383 17.4286 18.7195C17.3332 17.9013 16.7609 17.1005 15.7404 16.4738C13.146 14.8897 8.87304 14.8897 6.25965 16.4738C5.23909 17.1005 4.66681 17.9013 4.57143 18.7195C6.26918 20.1383 8.52014 21 11 21ZM11 21C16.5228 21 21 16.5228 21 11C21 5.47715 16.5228 1 11 1C5.47715 1 1 5.47715 1 11C1 16.5228 5.47715 21 11 21ZM11.1307 12.4286C11.0545 12.4177 10.9565 12.4177 10.8694 12.4286C8.95299 12.3631 7.42857 10.7928 7.42857 8.86259C7.42857 6.88876 9.01832 5.28571 11 5.28571C12.9708 5.28571 14.5714 6.88876 14.5714 8.86259C14.5605 10.7928 13.047 12.3631 11.1307 12.4286Z" stroke="black" stroke-linecap="round" stroke-linejoin="round"/>
</svg>
