<svg width="20" height="20" viewBox="0 0 20 20" fill="none" xmlns="http://www.w3.org/2000/svg">
<path d="M7.92425 0C3.55244 0 0 3.47153 0 7.74377C0 12.016 3.55244 15.4875 7.92425 15.4875C9.65404 15.4875 11.2527 14.9431 12.5564 14.0214L18.689 20L20 18.7189L13.9403 12.7829C15.1311 11.427 15.8485 9.66726 15.8485 7.74377C15.8485 3.47153 12.2961 0 7.92425 0ZM7.92425 0.911032C11.7917 0.911032 14.9162 3.96441 14.9162 7.74377C14.9162 11.5231 11.7917 14.5765 7.92425 14.5765C4.05681 14.5765 0.932265 11.5231 0.932265 7.74377C0.932265 3.96441 4.05681 0.911032 7.92425 0.911032Z" fill="black"/>
</svg>
